<?xml version="1.0" encoding="UTF-8" standalone="no"?>
<svg
   id="Logos"
   viewBox="0 0 1149.98 350"
   version="1.1"
   sodipodi:docname="logo-masthead.svg"
   inkscape:version="1.1.2 (0a00cf5339, 2022-02-04)"
   xmlns:inkscape="http://www.inkscape.org/namespaces/inkscape"
   xmlns:sodipodi="http://sodipodi.sourceforge.net/DTD/sodipodi-0.dtd"
   xmlns="http://www.w3.org/2000/svg"
   xmlns:svg="http://www.w3.org/2000/svg"
   xmlns:rdf="http://www.w3.org/1999/02/22-rdf-syntax-ns#"
   xmlns:cc="http://creativecommons.org/ns#"
   xmlns:dc="http://purl.org/dc/elements/1.1/">
  <sodipodi:namedview
     id="namedview169"
     pagecolor="#ffffff"
     bordercolor="#666666"
     borderopacity="1.0"
     inkscape:pageshadow="2"
     inkscape:pageopacity="0.0"
     inkscape:pagecheckerboard="0"
     showgrid="false"
     inkscape:snap-text-baseline="true"
     inkscape:zoom="1.4843736"
     inkscape:cx="574.99002"
     inkscape:cy="174.14753"
     inkscape:window-width="1920"
     inkscape:window-height="1016"
     inkscape:window-x="0"
     inkscape:window-y="0"
     inkscape:window-maximized="1"
     inkscape:current-layer="Logos" />
  <defs
     id="defs108">
    <style
       id="style106">.cls-1{fill:#e00;}</style>
  </defs>
  <title
     id="title110">Logo-Red_Hat-Ansible_Automation_Platform-A-Standard-RGB</title>
  <path
     d="M251.53,146.74h12.79l29.75,72.8H282.21l-8.42-21.32H241.23l-8.53,21.32H221.37Zm18.72,42.43-12.69-31.93-12.69,31.93Z"
     id="path112"
     style="fill:#cccccc" />
  <path
     d="M300.3,166.6h10.4v5.3a21.82,21.82,0,0,1,15.92-6.34c12.17,0,20.69,8.42,20.69,20.7v33.28h-10.4V188c0-8.32-5.09-13.42-13.1-13.42a15,15,0,0,0-13.11,6.86v38.07H300.3Z"
     id="path114"
     style="fill:#cccccc" />
  <path
     d="M359.89,205.81c5.52,4.37,11.34,6.66,17.27,6.66,7.49,0,12.69-3.23,12.69-7.91,0-3.74-2.71-5.93-8.53-6.76l-9.57-1.35c-10.5-1.56-15.81-6.45-15.81-14.66,0-9.57,8.32-16,20.7-16A36.28,36.28,0,0,1,398,172.53l-5.3,6.86c-5.83-3.85-11.13-5.51-16.75-5.51-6.34,0-10.61,2.91-10.61,7.18,0,3.85,2.5,5.72,8.74,6.65l9.57,1.36c10.5,1.56,16,6.55,16,14.76,0,9.47-9.57,16.64-22.15,16.64-9.15,0-17.37-2.7-23.19-7.8Z"
     id="path116"
     style="fill:#cccccc" />
  <path
     d="M406.49,151.62a6.38,6.38,0,0,1,6.34-6.44,6.45,6.45,0,1,1,0,12.89A6.39,6.39,0,0,1,406.49,151.62ZM418,219.54h-10.4V166.6H418Z"
     id="path118"
     style="fill:#cccccc" />
  <path
     d="M456.61,220.37a26.45,26.45,0,0,1-16-5.3v4.47H430.3v-72.8l10.4-2.29v27.14a24.56,24.56,0,0,1,16.12-5.82c15,0,26.73,12,26.73,27.25S471.8,220.37,456.61,220.37ZM440.7,181.16v23.92c3.33,3.85,8.84,6.24,14.77,6.24,10.19,0,17.89-7.8,17.89-18.2s-7.8-18.3-17.89-18.3C449.44,174.82,444.13,177.1,440.7,181.16Z"
     id="path120"
     style="fill:#cccccc" />
  <path
     d="M503.83,219.54h-10.4v-72.8l10.4-2.29Z"
     id="path122"
     style="fill:#cccccc" />
  <path
     d="M541.48,220.47c-15.61,0-27.77-12-27.77-27.45,0-15.29,11.65-27.25,26.52-27.25,14.56,0,25.58,12.06,25.58,27.66v3H524a17.86,17.86,0,0,0,17.89,15.18A20.56,20.56,0,0,0,555.31,207l6.65,6.56A31.56,31.56,0,0,1,541.48,220.47Zm-17.37-31.82h31.41c-1.56-8.11-7.8-14.15-15.5-14.15C532,174.5,525.67,180.23,524.11,188.65Z"
     id="path124"
     style="fill:#cccccc" />
  <path
     d="M621.55,146.74h12.8l29.74,72.8H652.24l-8.43-21.32H611.26l-8.53,21.32H591.39Zm18.73,42.43-12.69-31.93L614.9,189.17Z"
     id="path126"
     style="fill:#cccccc" />
  <path
     d="M678.44,198c0,8.32,5.1,13.52,13.11,13.52a14.88,14.88,0,0,0,13-7v-38H715v52.94h-10.4v-5.31a21.65,21.65,0,0,1-15.92,6.35c-12.16,0-20.59-8.53-20.59-20.8V166.6h10.4Z"
     id="path128"
     style="fill:#cccccc" />
  <path
     d="M734.08,175.34H722.85V166.6h11.23V153.08l10.3-2.5v16H760v8.74h-15.6V204c0,5.41,2.18,7.39,7.8,7.39a20.55,20.55,0,0,0,7.59-1.25v8.73a34.32,34.32,0,0,1-9.88,1.56c-10.3,0-15.81-4.88-15.81-14Z"
     id="path130"
     style="fill:#cccccc" />
  <path
     d="M791.7,165.56A27.51,27.51,0,1,1,764.14,193,27.17,27.17,0,0,1,791.7,165.56ZM809,193c0-10.3-7.69-18.31-17.26-18.31s-17.37,8-17.37,18.31,7.59,18.41,17.37,18.41C801.27,211.43,809,203.31,809,193Z"
     id="path132"
     style="fill:#cccccc" />
  <path
     d="M829,166.6h10.4v5a20.35,20.35,0,0,1,14.88-6c7.17,0,13,3.33,16.32,8.84a21.23,21.23,0,0,1,17.89-8.84c11.65,0,19.87,8.42,19.87,20.7v33.28H898V188c0-8.32-4.68-13.42-12.17-13.42-5.2,0-9.36,2.39-12.38,7.07a21.57,21.57,0,0,1,.42,4.58v33.28h-10.3V188c0-8.32-4.68-13.42-12.17-13.42a13.87,13.87,0,0,0-12,6.45v38.48H829Z"
     id="path134"
     style="fill:#cccccc" />
  <path
     d="M917.64,204.35c0-10,8.11-16.12,21.42-16.12a37.23,37.23,0,0,1,14.46,2.92v-5.62c0-7.49-4.47-11.23-12.9-11.23-4.88,0-9.88,1.35-16.43,4.47l-3.85-7.8c7.91-3.75,14.77-5.41,21.74-5.41,13.73,0,21.63,6.76,21.63,18.93v35H953.52V215a25.07,25.07,0,0,1-16.43,5.51C925.54,220.47,917.64,213.92,917.64,204.35Zm21.84,8.43a20.38,20.38,0,0,0,14-5v-9.16a27.54,27.54,0,0,0-13.62-3.22c-7.6,0-12.28,3.43-12.28,8.74C927.62,209.24,932.41,212.78,939.48,212.78Z"
     id="path136"
     style="fill:#cccccc" />
  <path
     d="M980.46,175.34H969.22V166.6h11.24V153.08l10.29-2.5v16h15.6v8.74h-15.6V204c0,5.41,2.19,7.39,7.8,7.39a20.57,20.57,0,0,0,7.6-1.25v8.73a34.32,34.32,0,0,1-9.88,1.56c-10.3,0-15.81-4.88-15.81-14Z"
     id="path138"
     style="fill:#cccccc" />
  <path
     d="M1012.9,151.62a6.39,6.39,0,0,1,6.35-6.44,6.45,6.45,0,1,1,0,12.89A6.39,6.39,0,0,1,1012.9,151.62Zm11.55,67.92h-10.4V166.6h10.4Z"
     id="path140"
     style="fill:#cccccc" />
  <path
     d="M1061.89,165.56A27.51,27.51,0,1,1,1034.33,193,27.17,27.17,0,0,1,1061.89,165.56ZM1079.15,193c0-10.3-7.69-18.31-17.26-18.31s-17.37,8-17.37,18.31,7.59,18.41,17.37,18.41C1071.46,211.43,1079.15,203.31,1079.15,193Z"
     id="path142"
     style="fill:#cccccc" />
  <path
     d="M1099.22,166.6h10.4v5.3a21.8,21.8,0,0,1,15.92-6.34c12.16,0,20.69,8.42,20.69,20.7v33.28h-10.4V188c0-8.32-5.09-13.42-13.1-13.42a15,15,0,0,0-13.11,6.86v38.07h-10.4Z"
     id="path144"
     style="fill:#cccccc" />
  <path
     d="M228.65,254.74h33.7c14.24,0,23.81,8.84,23.81,21.84,0,12.79-9.67,21.63-23.81,21.63H239.57v29.33H228.65Zm10.92,9.56V289H261.2c8.53,0,13.94-4.78,13.94-12.37s-5.41-12.28-13.94-12.28Z"
     id="path146"
     style="fill:#cccccc" />
  <path
     d="M306.54,327.54h-10.4v-72.8l10.4-2.29Z"
     id="path148"
     style="fill:#cccccc" />
  <path
     d="M316.11,312.35c0-10,8.11-16.12,21.43-16.12A37.22,37.22,0,0,1,352,299.15v-5.62c0-7.49-4.47-11.23-12.89-11.23-4.89,0-9.89,1.35-16.44,4.47l-3.85-7.8c7.91-3.75,14.77-5.41,21.74-5.41,13.73,0,21.63,6.76,21.63,18.93v35.05H352V323a25.07,25.07,0,0,1-16.43,5.51C324,328.47,316.11,321.92,316.11,312.35ZM338,320.78a20.38,20.38,0,0,0,14-5v-9.16a27.51,27.51,0,0,0-13.62-3.22c-7.59,0-12.27,3.43-12.27,8.74C326.1,317.24,330.88,320.78,338,320.78Z"
     id="path150"
     style="fill:#cccccc" />
  <path
     d="M378.93,283.34H367.7V274.6h11.23V261.08l10.29-2.5v16h15.61v8.74H389.22V312c0,5.41,2.19,7.39,7.81,7.39a20.55,20.55,0,0,0,7.59-1.25v8.73a34.32,34.32,0,0,1-9.88,1.56c-10.3,0-15.81-4.88-15.81-14Z"
     id="path152"
     style="fill:#cccccc" />
  <path
     d="M421.46,274.6v-8c0-11,6.35-17,18-17a27.45,27.45,0,0,1,7.49.93v9a20.73,20.73,0,0,0-6.55-.94c-5.72,0-8.53,2.6-8.53,8.22v7.8h15.08v8.74H431.86v44.2h-10.4v-44.2H409.19V274.6Z"
     id="path154"
     style="fill:#cccccc" />
  <path
     d="M477.83,273.56A27.51,27.51,0,1,1,450.27,301,27.17,27.17,0,0,1,477.83,273.56ZM495.1,301c0-10.3-7.7-18.31-17.27-18.31s-17.37,8-17.37,18.31,7.59,18.41,17.37,18.41C487.4,319.43,495.1,311.31,495.1,301Z"
     id="path156"
     style="fill:#cccccc" />
  <path
     d="M515.17,274.6h10.4v6.76a16.55,16.55,0,0,1,14.56-7.9,13.12,13.12,0,0,1,5.3.83v9.36a17.81,17.81,0,0,0-6.14-1.15c-6.13,0-11,3.33-13.72,9.68v35.36h-10.4Z"
     id="path158"
     style="fill:#cccccc" />
  <path
     d="M553.75,274.6h10.4v5a20.31,20.31,0,0,1,14.87-6c7.18,0,13,3.33,16.33,8.84a21.21,21.21,0,0,1,17.89-8.84c11.65,0,19.86,8.42,19.86,20.7v33.28H622.7V296c0-8.32-4.68-13.42-12.16-13.42-5.21,0-9.37,2.39-12.38,7.07a22.24,22.24,0,0,1,.41,4.58v33.28H588.28V296c0-8.32-4.68-13.42-12.17-13.42a13.86,13.86,0,0,0-12,6.45v38.48h-10.4Z"
     id="path160"
     style="fill:#cccccc" />
  <path
     class="cls-1"
     d="M129,85c12.51,0,30.61-2.58,30.61-17.46a14,14,0,0,0-.31-3.42l-7.45-32.36c-1.72-7.12-3.23-10.35-15.73-16.6C126.39,10.19,105.26,2,99,2c-5.82,0-7.55,7.54-14.45,7.54-6.68,0-11.64-5.6-17.89-5.6-6,0-9.91,4.09-12.93,12.5,0,0-8.41,23.72-9.49,27.16A6.43,6.43,0,0,0,44,45.54C44,54.76,80.33,85,129,85m32.55-11.42c1.73,8.19,1.73,9.05,1.73,10.13,0,14-15.74,21.77-36.43,21.77C80,105.47,39.08,78.1,39.08,60a18.45,18.45,0,0,1,1.51-7.33C23.77,53.52,2,56.54,2,75.72,2,107.2,76.59,146,135.65,146c45.28,0,56.7-20.48,56.7-36.65,0-12.72-11-27.16-30.83-35.78"
     id="path162" />
  <path
     d="M161.52,73.57c1.73,8.19,1.73,9.05,1.73,10.13,0,14-15.74,21.77-36.43,21.77C80,105.47,39.08,78.1,39.08,60a18.45,18.45,0,0,1,1.51-7.33l3.66-9.06A6.43,6.43,0,0,0,44,45.54C44,54.76,80.33,85,129,85c12.51,0,30.61-2.58,30.61-17.46a14,14,0,0,0-.31-3.42Z"
     id="path164" />
  <path
     d="m 750.55284,100.70824 c 0,19.86435 10.57215,29.52084 29.85341,29.52084 a 77.05104,87.058895 0 0 0 17.58082,-2.80673 v -23.02191 a 36.728994,41.499576 0 0 1 -11.35581,1.93798 c -7.9402,0 -10.88267,-2.80673 -10.88267,-11.243642 V 59.7767 h 23.00737 V 36.053108 H 775.74859 V 5.9809518 L 750.61201,12.129037 V 36.053108 H 733.93313 V 59.7767 h 16.6345 z m -78.367,0.53462 c 0,-6.148082 5.45613,-9.138591 13.69206,-9.138591 a 63.758221,72.039525 0 0 1 14.93407,2.105051 v 11.94533 a 31.805179,35.936229 0 0 1 -15.67339,4.39388 c -8.07326,0 -12.90839,-3.50841 -12.90839,-9.30567 m 7.68884,29.33706 c 8.87174,0 16.02829,-2.10504 22.71166,-7.2006 v 5.63017 h 24.87044 V 69.433203 c 0,-22.654357 -13.51462,-35.084184 -36.06362,-35.084184 -12.59786,0 -25.04785,3.34135 -38.44421,10.191121 l 9.01961,20.916856 c 9.64062,-4.577651 17.74348,-7.384385 24.88524,-7.384385 10.35036,0 15.70297,4.560944 15.70297,13.883312 v 4.560944 a 73.236194,82.748553 0 0 0 -18.66023,-2.639665 c -21.15908,0 -33.9048,10.02405 -33.9048,27.950398 0,16.3392 11.50367,28.80245 29.85339,28.80245 m -136.68391,-1.57046 h 26.74828 V 80.860624 h 44.78748 v 48.148866 h 26.74829 V 6.0143654 H 614.80049 V 53.277772 H 570.01301 V 6.0143654 h -26.7483 z M 441.34324,82.447765 c 0,-13.365403 9.3301,-23.556523 21.61746,-23.556523 a 25.461887,28.769031 0 0 1 17.41817,7.217318 v 32.427806 a 24.19027,27.332251 0 0 1 -17.41817,7.384394 c -12.1247,0 -21.61746,-10.191125 -21.61746,-23.539822 m 39.34615,46.561722 H 505.5746 V -0.13372013 L 480.43803,6.0143654 V 40.981601 a 41.84503,47.280115 0 0 0 -20.99646,-6.148085 c -23.9389,0 -42.76176,20.90015 -42.76176,47.614249 a 41.771097,47.196579 0 0 0 41.93373,47.831435 37.143007,41.967367 0 0 0 22.07585,-8.06936 z M 366.55448,57.604822 c 7.92543,0 14.6088,5.797243 17.25554,14.752063 h -34.31884 c 2.48409,-9.305661 8.70909,-14.752063 17.10766,-14.752063 m -42.49563,25.010011 c 0,27.064937 19.59176,48.148857 44.77272,48.148857 13.83989,0 23.95368,-4.2268 34.37797,-14.06708 L 386.60462,99.989859 c -3.8888,4.577651 -9.64062,7.033541 -16.47186,7.033541 A 21.277383,24.041021 0 0 1 349.90519,92.271336 h 58.62742 V 85.2545 c 0,-29.520834 -17.56607,-50.771824 -41.51976,-50.771824 A 42.244257,47.731198 0 0 0 324.13279,82.614833 M 280.72042,31.843008 c 8.87175,0 13.83992,6.315153 13.83992,13.883312 0,7.568159 -4.98296,13.883314 -13.83992,13.883314 H 254.28264 V 31.843008 Z M 227.49,129.00949 h 26.7483 V 84.201975 h 20.36062 L 295.137,129.00949 h 29.85341 l -23.9537,-49.201393 a 32.928931,37.205942 0 0 0 20.52327,-34.616392 c 0,-22.13645 -15.39246,-39.1773396 -38.44418,-39.1773396 h -55.58144 z"
     id="path166"
     style="fill:#cccccc;stroke-width:1.57171" />
  <metadata
     id="metadata14138">
    <rdf:RDF>
      <cc:Work
         rdf:about="">
        <dc:title>Logo-Red_Hat-Ansible_Automation_Platform-A-Standard-RGB</dc:title>
      </cc:Work>
    </rdf:RDF>
  </metadata>
</svg>
